<?xml version="1.0" encoding="UTF-8"?>
<!DOCTYPE svg PUBLIC "-//W3C//DTD SVG 1.1//EN" "http://www.w3.org/Graphics/SVG/1.1/DTD/svg11.dtd">
<svg xmlns="http://www.w3.org/2000/svg" version="1.1" width="512px" height="512px" style="shape-rendering:geometricPrecision; text-rendering:geometricPrecision; image-rendering:optimizeQuality; fill-rule:evenodd; clip-rule:evenodd" xmlns:xlink="http://www.w3.org/1999/xlink">
<g><path style="opacity:1" fill="#18191e" d="M 93.5,38.5 C 148.168,38.3333 202.834,38.5 257.5,39C 261.123,40.1557 264.789,41.1557 268.5,42C 272.156,45.1628 276.156,47.8295 280.5,50C 351.693,122.193 423.193,194.027 495,265.5C 499.025,272.201 497.859,277.701 491.5,282C 482.591,284.058 473.924,286.724 465.5,290C 453.126,291.628 448.626,286.461 452,274.5C 457.044,271.36 462.544,269.36 468.5,268.5C 468.649,267.448 468.483,266.448 468,265.5C 409.009,206.876 350.009,148.21 291,89.5C 286.863,84.6919 282.696,79.8585 278.5,75C 273.808,70.9707 269.142,66.9707 264.5,63C 261.052,61.0728 257.385,59.7394 253.5,59C 200.833,58.6667 148.167,58.3333 95.5,58C 91.6612,55.6829 88.9946,52.3496 87.5,48C 88.6839,44.2227 90.6839,41.056 93.5,38.5 Z"/></g>
<g><path style="opacity:1" fill="#18191e" d="M 80.5,90.5 C 120.835,90.3333 161.168,90.5 201.5,91C 209.725,91.9395 217.392,94.4395 224.5,98.5C 227.074,102.242 230.407,105.075 234.5,107C 243,115.5 251.5,124 260,132.5C 261.333,134.5 262.667,136.5 264,138.5C 321.307,196.14 378.974,253.473 437,310.5C 440.03,314.191 443.03,317.858 446,321.5C 446.711,323.899 446.544,326.232 445.5,328.5C 443.395,330.624 441.228,332.624 439,334.5C 398.538,345.817 358.371,357.817 318.5,370.5C 306.667,410.833 294.833,451.167 283,491.5C 277.675,497.413 271.842,497.913 265.5,493C 194.667,420.833 123.167,349.333 51,278.5C 49.0934,274.59 46.4267,271.256 43,268.5C 40.2022,262.773 38.2022,256.773 37,250.5C 36.3333,210.833 36.3333,171.167 37,131.5C 42.9851,108.679 57.4851,95.0119 80.5,90.5 Z M 84.5,109.5 C 122.173,109.167 159.839,109.5 197.5,110.5C 203.207,111.236 208.541,113.069 213.5,116C 281.14,183.64 348.806,251.306 416.5,319C 412.707,320.068 409.041,321.568 405.5,323.5C 373.529,332.859 341.529,342.025 309.5,351C 307.101,351.731 304.935,352.898 303,354.5C 302.241,357.785 300.908,360.785 299,363.5C 289.307,398.277 279.307,432.944 269,467.5C 199.721,398.221 130.387,328.887 61,259.5C 59.4698,255.91 58.1365,252.243 57,248.5C 56.3333,210.833 56.3333,173.167 57,135.5C 59.3792,125.209 65.2126,117.709 74.5,113C 78.3238,112.567 81.6572,111.401 84.5,109.5 Z M 145.5,162.5 C 153.319,162.032 160.986,162.865 168.5,165C 171.502,167.503 174.835,169.503 178.5,171C 195.573,186.217 199.406,204.384 190,225.5C 186.247,228.833 183.08,232.666 180.5,237C 157.869,251.722 137.369,249.222 119,229.5C 106.833,207.693 109.667,188.193 127.5,171C 133.025,166.928 139.025,164.095 145.5,162.5 Z"/></g>
<g><path style="opacity:1" fill="#18191e" d="M 142.5,142.5 C 150.528,142.263 158.528,142.597 166.5,143.5C 175,146.083 183,149.75 190.5,154.5C 193.852,158.686 197.686,162.353 202,165.5C 221.098,194.459 219.432,222.126 197,248.5C 177.233,265.606 154.733,270.106 129.5,262C 97.3922,245.928 85.5589,220.094 94,184.5C 95.4023,180.793 96.9023,177.126 98.5,173.5C 101.245,170.921 103.411,167.921 105,164.5C 109.493,161.007 113.659,157.173 117.5,153C 125.648,148.792 133.981,145.292 142.5,142.5 Z M 145.5,162.5 C 139.025,164.095 133.025,166.928 127.5,171C 109.667,188.193 106.833,207.693 119,229.5C 137.369,249.222 157.869,251.722 180.5,237C 183.08,232.666 186.247,228.833 190,225.5C 199.406,204.384 195.573,186.217 178.5,171C 174.835,169.503 171.502,167.503 168.5,165C 160.986,162.865 153.319,162.032 145.5,162.5 Z"/></g>
</svg>
